<svg width="640" height="720" viewBox="0 0 640 720" fill="none" xmlns="http://www.w3.org/2000/svg">
<g clip-path="url(#clip0_39806_15)">
<path fill-rule="evenodd" clip-rule="evenodd" d="M302.397 673.513C202.564 674.778 91.2866 653.475 37.4176 569.491C-14.7761 488.119 30.0506 386.867 59.4918 294.816C87.3239 207.796 114.438 113.898 196.21 73.0071C283.906 29.154 390.308 38.2668 475.522 86.7741C559.393 134.517 613.235 221.711 625.479 317.363C637.118 408.294 598.117 495.245 536.501 563.167C475.542 630.366 393.173 672.363 302.397 673.513Z" fill="#A5DEFF"/>
<g clip-path="url(#clip1_39806_15)">
<ellipse cx="155.453" cy="178.368" rx="13.0738" ry="20.5445" transform="rotate(-5.63119 155.453 178.368)" fill="#0D070C"/>
<ellipse rx="13.0738" ry="20.5445" transform="matrix(-0.910908 0.412609 0.412609 0.910908 288.201 139.097)" fill="#0D070C"/>
<path fill-rule="evenodd" clip-rule="evenodd" d="M203.969 88.6023C179.094 95.5899 133.951 119.545 152.382 159.465C164.737 186.226 158.278 198.287 151.296 211.324C145.258 222.596 138.83 234.599 143.837 257.466C148.384 278.237 157.842 291.089 167.282 303.916C180.253 321.543 193.191 339.124 193.306 377.144C193.466 429.694 232.094 568.808 251.389 631.797L342.944 607.264L203.969 88.6023ZM204.211 89.5043C229.247 83.1181 280.32 81.2924 284.319 125.08C286.986 154.287 302.398 162.736 318.52 171.574C332.609 179.297 347.241 187.318 354.379 209.753C361.058 230.742 356.324 246.23 351.579 261.756C345.449 281.814 339.299 301.934 357.716 334.057C383.853 379.647 419.957 519.438 434.741 583.634L343.186 608.166L204.211 89.5043Z" fill="white"/>
<ellipse rx="31.5961" ry="44.505" transform="matrix(-0.761754 0.647867 0.647867 0.761754 177.227 272.303)" fill="url(#paint0_radial_39806_15)"/>
<ellipse rx="31.5961" ry="44.505" transform="matrix(-0.952397 -0.30486 -0.30486 0.952397 325.01 235.056)" fill="url(#paint1_radial_39806_15)"/>
<path d="M407.705 477.095C349.172 523.494 259.572 536.42 222.692 530.891L228.95 552.515C313.794 570.625 386.963 523.692 413.884 498.541L407.705 477.095Z" fill="#005BBB"/>
<path d="M413.884 497.814C344.714 556.582 265.684 557.306 228.697 552.206L233.96 569.056C319.154 586.177 393.647 547.265 420.063 521.804L413.884 497.814Z" fill="#FFD500"/>
<ellipse opacity="0.5" cx="285.679" cy="132.716" rx="5.86084" ry="9.20989" transform="rotate(9.05007 285.679 132.716)" fill="white"/>
<ellipse opacity="0.5" cx="152.644" cy="170.518" rx="5.86084" ry="9.20989" transform="rotate(9.05007 152.644 170.518)" fill="white"/>
<path d="M332.873 567.344C172.646 598.536 207 815.691 244.205 920.37C431.599 981.67 781.303 1044.08 680.971 803.339C580.64 562.594 448.765 534.535 395.369 550.598L332.873 567.344Z" fill="white"/>
<path d="M406.251 473.46C454.212 467.977 532.887 482.92 465.54 577.565C398.688 671.513 385.745 730.585 421.636 718.963C421.895 718.866 422.164 718.776 422.443 718.693C422.171 718.787 421.902 718.877 421.636 718.963C411.659 722.691 416.222 736.144 411.068 741.601C371.119 747.953 370.374 694.258 459.602 576.465C481.077 545.147 495.42 484.166 410.757 487.45L406.251 473.46Z" fill="#FFD500"/>
<path d="M399.839 453.208C448.727 442.041 502.059 437.652 447.722 538.834C393.942 638.979 450.99 631.487 487.256 614.844C487.599 614.666 487.972 614.493 488.376 614.324C488.005 614.498 487.631 614.671 487.256 614.844C478.326 619.457 489.142 626.785 484.743 632.7C444.315 643.756 379.042 640.387 441.377 538.468C458.516 505.084 491.059 451.313 403.706 464.737L399.839 453.208Z" fill="#005BBB"/>
<path d="M180.679 205.54C160.97 143.532 218.386 116.914 218.339 117.758C283.241 117.758 292.296 173.332 292.296 181.916C292.296 205.54 334.24 215.184 329.422 241.093C324.604 267.002 337.571 314.802 337.493 350.594C337.431 379.227 326.629 387.02 321.236 387.337C316.92 388.629 314.05 389.027 304.999 391.688C269.151 402.226 254.216 355.506 208.594 309.723C162.973 263.94 205.314 283.049 180.679 205.54Z" fill="#FF6B0A"/>
<path d="M298.836 368.686C269.295 373.895 242.805 312.319 233.253 280.88C249.946 272.218 286.936 256.441 301.356 262.632C319.381 270.37 335.763 362.176 298.836 368.686Z" fill="#1F0C02"/>
<path d="M302.524 358.997C322.052 351.057 303.827 308.536 292.273 288.268L253.035 298.782C261.395 322.162 282.995 366.937 302.524 358.997Z" fill="#724B3B"/>
<path d="M296.046 343.768C299.418 339.668 281.597 297.534 272.264 276.98L263.891 280.211C273.205 303.105 292.674 347.867 296.046 343.768Z" fill="#6B3B28"/>
<path d="M215.001 259.667C223.367 212.954 205.838 192.997 196.028 188.859C215.605 140.688 256.803 154.689 274.955 167.71C262.83 214.464 271.267 177.399 302.949 236.102C328.294 283.064 299.757 308.982 282.321 316.071C256.396 316.734 206.636 306.381 215.001 259.667Z" fill="#ED5E00"/>
<path d="M311.021 256.373C248.016 205.968 226.23 261.047 223.212 294.887C230.806 306.387 253.49 326.702 283.482 315.959C313.474 305.215 314.338 271.759 311.021 256.373Z" fill="#FF8E3D"/>
<path d="M257.359 262.276C255.421 257.066 250.962 247.664 248.636 251.735C246.309 255.806 253.482 260.459 257.359 262.276Z" fill="#FD7411"/>
<path d="M267.531 259.57C265.757 254.302 263.301 244.19 267.672 245.888C272.042 247.586 269.399 255.717 267.531 259.57Z" fill="#FD7411"/>
<path d="M227.918 41.2787L244.275 85.9872C225.664 116.811 176.909 120.397 154.858 118.337L138.865 72.5383L227.918 41.2787Z" fill="#373500"/>
<path d="M244.275 85.987C245.123 112.279 227.264 153.45 154.858 117.974L244.275 85.987Z" fill="#373500"/>
<ellipse cx="183.5" cy="56.8877" rx="47.2695" ry="8.14809" transform="rotate(-19.0312 183.5 56.8877)" fill="#373500"/>
<path d="M227.918 41.2787L244.275 85.9872C225.664 116.811 176.909 120.397 154.858 118.337L138.865 72.5383C138.865 72.5383 146.556 71.5739 151.223 69.994C156.815 68.1008 164.672 63.0878 164.672 63.0878L203.201 94.3474V47.8215C203.201 47.8215 211.584 49.2087 216.65 47.8215C221.558 46.4775 227.918 41.2787 227.918 41.2787Z" fill="#4B4800"/>
<path d="M182.569 64.1273C182.863 64.1721 183.104 64.1948 183.332 64.2571C185.228 64.7185 186.639 65.6632 187.745 67.4595C188.214 68.2206 188.61 69.0525 189.03 69.8384C189.4 70.5354 189.765 71.2188 190.147 71.9096C190.248 72.0875 190.257 72.1816 190.077 72.3085C189.687 72.5613 189.429 72.9596 189.444 73.4957C189.449 73.9711 189.664 74.3207 190.011 74.5349C190.364 74.7628 190.742 74.7305 191.106 74.5571C191.285 74.4636 191.372 74.3197 191.39 74.0794C191.557 72.2451 191.369 70.4641 190.875 68.7114C190.46 67.263 189.807 65.9393 189.206 64.6042C188.868 63.8415 188.547 63.0527 188.184 62.3024C187.962 61.8253 187.786 61.3566 187.7 60.8245C187.614 60.2924 187.629 59.7575 187.767 59.2073C188.227 59.4124 188.607 59.7417 188.884 60.174C189.138 60.5855 189.355 61.049 189.549 61.4916C189.76 61.9749 189.911 62.4895 190.093 62.9717C190.57 64.2552 191.036 65.5449 191.55 66.8097C192.418 68.9115 193.685 70.6405 195.364 71.9569C195.583 72.1394 195.778 72.1201 195.994 71.9745C196.545 71.6209 196.771 70.8933 196.522 70.2813C196.29 69.7101 195.638 69.4239 195.066 69.6897C194.857 69.782 194.812 69.7067 194.758 69.5038C194.463 68.4549 194.149 67.3986 193.842 66.356C193.503 65.1648 193.104 64.0049 193.079 62.7321C193.048 61.0509 193.455 59.7011 194.253 58.2794C194.315 58.1814 194.376 58.0833 194.463 57.9394C194.513 58.0618 194.546 58.1434 194.579 58.225C196.717 63.4882 198.766 68.5339 200.904 73.7971C201.026 74.0963 201.026 74.0963 200.775 74.2272C199.831 74.7196 198.875 75.2182 197.931 75.7106C197.764 75.7978 197.714 75.8896 197.756 76.0987C198.067 77.6837 197.907 79.217 197.233 80.6569C197.095 80.9595 197.003 81.304 196.888 81.6276C196.064 81.2008 195.112 81.1039 194.321 80.5111C193.674 80.0243 193.083 79.4594 192.631 78.7391C192.523 78.581 192.43 78.564 192.286 78.6388C191.319 79.1436 190.363 79.6423 189.395 80.1471C189.228 80.2344 189.139 80.231 189.051 80.0134C186.902 74.7229 184.836 69.6365 182.687 64.3461C182.652 64.3313 182.63 64.2769 182.569 64.1273ZM184.604 65.9997C184.586 66.0257 184.55 66.0444 184.531 66.0705C184.57 66.1657 184.609 66.2609 184.647 66.3561C185.68 68.8993 186.631 71.2385 187.664 73.7817C187.835 74.2033 187.835 74.2034 188.217 74.0039C188.361 73.9291 188.416 73.8509 188.385 73.669C188.324 73.091 188.456 72.5606 188.751 72.1102C188.874 71.9141 188.848 71.7792 188.747 71.6013C188.258 70.719 187.752 69.8293 187.299 68.9283C186.818 67.9927 186.329 67.358 185.55 66.7256C185.24 66.4593 184.921 66.2462 184.604 65.9997ZM194.466 60.9047C194.442 60.9172 194.424 60.9098 194.4 60.9223C194.373 61.0685 194.345 61.2147 194.33 61.3546C194.195 62.4137 194.073 63.2524 194.345 64.2803C194.699 65.5791 195.077 66.8654 195.443 68.158C195.485 68.3337 195.565 68.4238 195.747 68.4442C196.246 68.4969 196.682 68.7145 197.042 69.1367C197.207 69.3305 197.361 69.3163 197.644 69.0863C197.819 68.9458 197.681 68.82 197.631 68.6976C196.581 66.1136 195.615 63.7335 194.559 61.1359C194.538 61.0481 194.505 60.9665 194.466 60.9047ZM191.392 75.7596C191.327 75.7771 191.249 75.8009 191.155 75.8173C190.325 76.0196 189.568 75.9034 188.97 75.1441C188.884 75.0404 188.815 75.0109 188.712 75.0806C188.629 75.1242 188.545 75.1678 188.462 75.2115C188.342 75.2738 188.316 75.3531 188.372 75.4891C188.786 76.5091 189.206 77.5427 189.632 78.5565C189.654 78.6109 189.799 78.6834 189.847 78.6585C190.498 78.3355 191.155 77.9927 191.795 77.6426C191.843 77.6176 191.899 77.4726 191.889 77.412C191.727 76.8702 191.565 76.3285 191.392 75.7596ZM196.505 73.092C196.774 73.611 197.044 74.0967 197.307 74.6021C197.38 74.7455 197.475 74.6956 197.571 74.6458C198.18 74.3279 198.772 74.0027 199.387 73.6984C199.578 73.5987 199.605 73.4859 199.51 73.2882C199.128 72.3832 198.77 71.4658 198.394 70.5409C198.223 70.1193 198.223 70.1193 197.852 70.3126C197.745 70.3686 197.649 70.4185 197.674 70.5868C197.785 71.5014 197.448 72.2046 196.873 72.7848C196.746 72.9004 196.608 72.9888 196.505 73.092ZM192.415 70.5781C192.506 71.7998 192.585 72.9943 192.458 74.2143C192.945 74.3067 193.402 74.398 193.865 74.4694C193.929 74.4853 194.038 74.3957 194.081 74.3238C194.303 73.9441 194.491 73.5497 194.713 73.1701C194.781 73.0522 194.777 72.9717 194.668 72.8805C193.889 72.2815 193.225 71.5397 192.587 70.752C192.523 70.7027 192.466 70.6336 192.415 70.5781ZM193.564 78.0053C193.803 78.7375 195.035 79.8091 195.501 79.7802C195.507 79.7604 195.514 79.7405 195.514 79.7405C195.227 79.0333 194.951 78.3199 194.658 77.6325C194.635 77.5781 194.519 77.5401 194.465 77.5515C194.156 77.6801 193.862 77.8495 193.564 78.0053ZM196.516 79.2838C196.891 78.6758 196.898 76.909 196.593 76.4086C196.33 76.5457 196.043 76.6953 195.781 76.8324C195.625 76.9135 195.605 77.0064 195.671 77.1696C195.903 77.7408 196.135 78.312 196.367 78.8832C196.405 79.0118 196.455 79.1342 196.516 79.2838ZM193.546 76.7128C193.701 76.6318 193.874 76.5581 194.018 76.4499C194.066 76.4249 194.117 76.2663 194.089 76.2317C193.774 75.6707 193.229 75.3284 192.672 75.4542C192.554 75.4831 192.505 75.5414 192.531 75.6763C192.632 76.0684 192.746 76.4543 192.852 76.8601C192.896 77.0023 192.99 77.0193 193.097 76.9632C193.235 76.8748 193.39 76.7938 193.546 76.7128ZM195.744 75.566C195.887 75.4912 196.019 75.4226 196.162 75.3478C196.311 75.2866 196.367 75.175 196.271 75.0107C196.097 74.6893 195.923 74.368 195.737 74.053C195.647 73.9022 195.559 73.8988 195.438 74.028C195.045 74.4145 194.865 75.184 195.068 75.7206C195.09 75.775 195.213 75.8266 195.266 75.8153C195.439 75.7416 195.589 75.647 195.744 75.566Z" fill="#FFD500"/>
</g>
</g>
<defs>
<radialGradient id="paint0_radial_39806_15" cx="0" cy="0" r="1" gradientUnits="userSpaceOnUse" gradientTransform="translate(31.5961 44.505) rotate(90) scale(44.505 31.5961)">
<stop stop-color="#FFBBBB"/>
<stop offset="1" stop-color="#FFBBBB" stop-opacity="0"/>
</radialGradient>
<radialGradient id="paint1_radial_39806_15" cx="0" cy="0" r="1" gradientUnits="userSpaceOnUse" gradientTransform="translate(31.5961 44.505) rotate(90) scale(44.505 31.5961)">
<stop stop-color="#FFBBBB"/>
<stop offset="1" stop-color="#FFBBBB" stop-opacity="0"/>
</radialGradient>
<clipPath id="clip0_39806_15">
<rect width="640" height="720" fill="white"/>
</clipPath>
<clipPath id="clip1_39806_15">
<rect width="637" height="735" fill="white" transform="translate(32 17.2629)"/>
</clipPath>
</defs>
</svg>
